<svg id="visual" viewBox="0 0 900 600" width="900" height="600" xmlns="http://www.w3.org/2000/svg" xmlns:xlink="http://www.w3.org/1999/xlink" version="1.1"><rect x="0" y="0" width="900" height="600" fill="#191919"></rect><defs><linearGradient id="grad1_0" x1="33.3%" y1="0%" x2="100%" y2="100%"><stop offset="20%" stop-color="#161616" stop-opacity="1"></stop><stop offset="80%" stop-color="#161616" stop-opacity="1"></stop></linearGradient></defs><defs><linearGradient id="grad1_1" x1="33.3%" y1="0%" x2="100%" y2="100%"><stop offset="20%" stop-color="#161616" stop-opacity="1"></stop><stop offset="80%" stop-color="#181818" stop-opacity="1"></stop></linearGradient></defs><defs><linearGradient id="grad1_2" x1="33.3%" y1="0%" x2="100%" y2="100%"><stop offset="20%" stop-color="#191919" stop-opacity="1"></stop><stop offset="80%" stop-color="#181818" stop-opacity="1"></stop></linearGradient></defs><defs><linearGradient id="grad2_0" x1="0%" y1="0%" x2="66.7%" y2="100%"><stop offset="20%" stop-color="#161616" stop-opacity="1"></stop><stop offset="80%" stop-color="#161616" stop-opacity="1"></stop></linearGradient></defs><defs><linearGradient id="grad2_1" x1="0%" y1="0%" x2="66.7%" y2="100%"><stop offset="20%" stop-color="#181818" stop-opacity="1"></stop><stop offset="80%" stop-color="#161616" stop-opacity="1"></stop></linearGradient></defs><defs><linearGradient id="grad2_2" x1="0%" y1="0%" x2="66.7%" y2="100%"><stop offset="20%" stop-color="#181818" stop-opacity="1"></stop><stop offset="80%" stop-color="#191919" stop-opacity="1"></stop></linearGradient></defs><g transform="translate(900, 0)"><path d="M0 351.5C-39.5 332.2 -79 313 -124 299.3C-169 285.7 -219.4 277.8 -248.6 248.6C-277.8 219.4 -285.7 169 -299.3 124C-313 79 -332.2 39.5 -351.5 0L0 0Z" fill="#181818"></path><path d="M0 234.4C-26.3 221.5 -52.7 208.6 -82.7 199.6C-112.6 190.5 -146.3 185.2 -165.7 165.7C-185.2 146.3 -190.5 112.6 -199.6 82.7C-208.6 52.7 -221.5 26.3 -234.4 0L0 0Z" fill="#171717"></path><path d="M0 117.2C-13.2 110.7 -26.3 104.3 -41.3 99.8C-56.3 95.2 -73.1 92.6 -82.9 82.9C-92.6 73.1 -95.2 56.3 -99.8 41.3C-104.3 26.3 -110.7 13.2 -117.2 0L0 0Z" fill="#161616"></path></g><g transform="translate(0, 600)"><path d="M0 -351.5C36.2 -320.5 72.3 -289.5 113.7 -274.4C155 -259.3 201.6 -260 239.7 -239.7C277.8 -219.4 307.5 -178 324.8 -134.5C342 -91.1 346.8 -45.5 351.5 0L0 0Z" fill="#181818"></path><path d="M0 -234.4C24.1 -213.7 48.2 -193 75.8 -182.9C103.3 -172.8 134.4 -173.4 159.8 -159.8C185.2 -146.3 205 -118.7 216.5 -89.7C228 -60.7 231.2 -30.4 234.4 0L0 0Z" fill="#171717"></path><path d="M0 -117.2C12.1 -106.8 24.1 -96.5 37.9 -91.5C51.7 -86.4 67.2 -86.7 79.9 -79.9C92.6 -73.1 102.5 -59.3 108.3 -44.8C114 -30.4 115.6 -15.2 117.2 0L0 0Z" fill="#161616"></path></g></svg>