<svg id="visual" viewBox="0 0 900 600" width="900" height="600" xmlns="http://www.w3.org/2000/svg" xmlns:xlink="http://www.w3.org/1999/xlink" version="1.1"><rect x="0" y="0" width="900" height="600" fill="#0a1229"></rect><defs><linearGradient id="grad1_0" x1="33.3%" y1="0%" x2="100%" y2="100%"><stop offset="20%" stop-color="#16213e" stop-opacity="1"></stop><stop offset="80%" stop-color="#16213e" stop-opacity="1"></stop></linearGradient></defs><defs><linearGradient id="grad1_1" x1="33.3%" y1="0%" x2="100%" y2="100%"><stop offset="20%" stop-color="#16213e" stop-opacity="1"></stop><stop offset="80%" stop-color="#0a1229" stop-opacity="1"></stop></linearGradient></defs><defs><linearGradient id="grad2_0" x1="0%" y1="0%" x2="66.7%" y2="100%"><stop offset="20%" stop-color="#16213e" stop-opacity="1"></stop><stop offset="80%" stop-color="#16213e" stop-opacity="1"></stop></linearGradient></defs><defs><linearGradient id="grad2_1" x1="0%" y1="0%" x2="66.7%" y2="100%"><stop offset="20%" stop-color="#0a1229" stop-opacity="1"></stop><stop offset="80%" stop-color="#16213e" stop-opacity="1"></stop></linearGradient></defs><g transform="translate(900, 0)"><path d="M0 324.5C-30.7 289.9 -61.3 255.4 -100.6 243C-139.9 230.6 -187.9 240.3 -224.2 224.2C-260.4 208 -285 165.9 -299.8 124.2C-314.6 82.5 -319.5 41.2 -324.5 0L0 0Z" fill="#101a33"></path><path d="M0 162.2C-15.3 145 -30.7 127.7 -50.3 121.5C-70 115.3 -93.9 120.2 -112.1 112.1C-130.2 104 -142.5 82.9 -149.9 62.1C-157.3 41.2 -159.8 20.6 -162.2 0L0 0Z" fill="#16213e"></path></g><g transform="translate(0, 600)"><path d="M0 -324.5C36.4 -297.2 72.9 -269.8 102.6 -247.6C132.2 -225.4 155.1 -208.3 190.9 -190.9C226.7 -173.6 275.4 -156 299.8 -124.2C324.2 -92.3 324.4 -46.2 324.5 0L0 0Z" fill="#101a33"></path><path d="M0 -162.2C18.2 -148.6 36.4 -134.9 51.3 -123.8C66.1 -112.7 77.6 -104.1 95.5 -95.5C113.4 -86.8 137.7 -78 149.9 -62.1C162.1 -46.2 162.2 -23.1 162.2 0L0 0Z" fill="#16213e"></path></g></svg>